<svg width="228" height="142" viewBox="0 0 228 142" fill="none" xmlns="http://www.w3.org/2000/svg">
<g clip-path="url(#clip0_5093_21481)">
<rect width="228" height="142" rx="10" fill="url(#paint0_linear_5093_21481)"/>
<g clip-path="url(#clip1_5093_21481)">
<rect opacity="0.6" x="184.536" y="11.2569" width="78.4666" height="110.253" rx="17.4167" transform="rotate(120 184.536 11.2569)" stroke="white"/>
<rect opacity="0.6" x="60.8764" y="52.6414" width="87.8967" height="87.8967" rx="17.4167" transform="rotate(30 60.8764 52.6414)" stroke="white"/>
<path opacity="0.6" d="M35.8612 25.4067L9.89677 61.1436C5.46172 67.248 -2.39959 69.8023 -9.57565 67.4706L-51.5869 53.8203C-58.763 51.4887 -63.6215 44.8015 -63.6215 37.2561L-63.6215 -6.91714C-63.6215 -14.4625 -58.763 -21.1497 -51.5869 -23.4814L-9.57565 -37.1317C-2.39959 -39.4633 5.46173 -36.909 9.89677 -30.8047L35.8612 4.93222C40.2962 11.0365 40.2962 19.3024 35.8612 25.4067Z" stroke="white"/>
<path opacity="0.6" d="M267.129 101.688L261.962 150.84C261.174 158.344 255.643 164.487 248.262 166.055L199.919 176.331C192.539 177.9 184.988 174.538 181.215 168.003L156.504 125.202C152.731 118.667 153.595 110.447 158.644 104.839L191.714 68.1109C196.763 62.5036 204.848 60.785 211.741 63.854L256.891 83.9561C263.784 87.0251 267.917 94.1835 267.129 101.688Z" stroke="white"/>
<path opacity="0.6" d="M258.906 15.852L229.649 45.1098C220.168 54.5902 203.98 50.2526 200.51 37.3021L189.801 -2.66481C186.331 -15.6153 198.181 -27.4659 211.132 -23.9958L251.099 -13.2867C264.049 -9.8166 268.387 6.37154 258.906 15.852Z" stroke="white"/>
<path opacity="0.6" d="M2.10079 118.813L-27.157 148.071C-36.6374 157.551 -52.8256 153.214 -56.2957 140.263L-67.0048 100.296C-70.4748 87.3459 -58.6243 75.4953 -45.6738 78.9654L-5.70689 89.6745C7.24361 93.1446 11.5812 109.333 2.10079 118.813Z" stroke="white"/>
</g>
</g>
<defs>
<linearGradient id="paint0_linear_5093_21481" x1="-16.3354" y1="41.4167" x2="254.465" y2="114.665" gradientUnits="userSpaceOnUse">
<stop stop-color="#E0E0E0"/>
<stop offset="1" stop-color="#B7B7B7"/>
</linearGradient>
<clipPath id="clip0_5093_21481">
<rect width="228" height="142" rx="10" fill="white"/>
</clipPath>
<clipPath id="clip1_5093_21481">
<rect width="142" height="228" fill="white" transform="translate(228) rotate(90)"/>
</clipPath>
</defs>
</svg>
