<svg width="24" height="24" viewBox="0 0 24 24" fill="none" xmlns="http://www.w3.org/2000/svg">
<path d="M15.904 13.0506L13.7827 15.1719L19.7789 21.1681L21.9002 19.0468L15.904 13.0506Z" fill="#64B400"/>
<path d="M17.5 9.99999C19.43 9.99999 21 8.42999 21 6.49999C21 5.91999 20.84 5.37999 20.59 4.89999L17.89 7.59999L16.4 6.10999L19.1 3.40999C18.62 3.15999 18.08 2.99999 17.5 2.99999C15.57 2.99999 14 4.56999 14 6.49999C14 6.90999 14.08 7.29999 14.21 7.65999L12.36 9.50999L10.58 7.72999L11.29 7.01999L9.87998 5.60999L12 3.48999C10.83 2.31999 8.92998 2.31999 7.75998 3.48999L4.21998 7.02999L5.62998 8.43999H2.80998L2.09998 9.14999L5.63998 12.69L6.34998 11.98V9.14999L7.75998 10.56L8.46998 9.84999L10.25 11.63L2.83998 19.04L4.95998 21.16L16.34 9.78999C16.7 9.91999 17.09 9.99999 17.5 9.99999Z" fill="#64B400"/>
</svg>
