<svg width="60" height="40" viewBox="0 0 60 40" fill="none" xmlns="http://www.w3.org/2000/svg">
<path d="M51.438 12.1584H48.2947C47.3444 12.1584 46.6134 12.4494 46.1748 13.395L40.1807 26.9965H44.4204C44.4204 26.9965 45.1514 25.1781 45.2976 24.7417C45.7362 24.7417 49.9029 24.7417 50.4877 24.7417C50.6339 25.2509 50.9994 26.9238 50.9994 26.9238H54.8005L51.438 12.1584ZM46.4672 21.6868C46.8327 20.814 48.0754 17.5409 48.0754 17.5409C48.0754 17.6136 48.4409 16.6681 48.5871 16.1589L48.8795 17.4682C48.8795 17.4682 49.6836 21.0322 49.8298 21.7596H46.4672V21.6868Z" fill="#3362AB"/>
<path d="M40.4734 22.1232C40.4734 25.1781 37.6956 27.2147 33.3827 27.2147C31.5553 27.2147 29.8009 26.851 28.8506 26.4146L29.4354 23.0687L29.9471 23.287C31.2629 23.8688 32.1401 24.087 33.7482 24.087C34.9178 24.087 36.1605 23.6506 36.1605 22.6323C36.1605 21.9777 35.6488 21.5413 34.0406 20.8139C32.5056 20.0866 30.4588 18.9228 30.4588 16.8135C30.4588 13.904 33.3096 11.9402 37.3301 11.9402C38.8652 11.9402 40.181 12.2311 40.9851 12.5948L40.4003 15.7952L40.1079 15.5042C39.3769 15.2133 38.4266 14.9223 37.0377 14.9223C35.5026 14.9951 34.7716 15.6497 34.7716 16.2316C34.7716 16.8862 35.6488 17.3954 37.0377 18.05C39.3769 19.141 40.4734 20.3775 40.4734 22.1232Z" fill="#3362AB"/>
<path d="M4.7998 12.3041L4.8729 12.0132H11.1595C12.0366 12.0132 12.6945 12.3041 12.9138 13.2497L14.3027 19.7959C12.9138 16.3046 9.69747 13.4679 4.7998 12.3041Z" fill="#F9B50B"/>
<path d="M23.1478 12.1584L16.7881 26.9238H12.4753L8.82031 14.5587C11.4519 16.2316 13.6449 18.8501 14.449 20.6685L14.8876 22.196L18.8349 12.0857H23.1478V12.1584Z" fill="#3362AB"/>
<path d="M24.829 12.0857H28.8495L26.291 26.9238H22.2705L24.829 12.0857Z" fill="#3362AB"/>
</svg>
